0
SECTION
2
HEADER
9
$ACADVER
1
AC1009
9
$EXTMIN
10
-10
20
-10
9
$EXTMAX
10
390
20
190
9
$VIEWCTR
10
190
20
90
9
$VIEWSIZE
40
480
0
ENDSEC
0
SECTION
2
TABLES
0
TABLE
2
LTYPE
70
3
0
LTYPE
2
CONTINUOUS
70
0
3
CONTINUOUS
72
65
73
0
40
0
0
LTYPE
2
DASHED
70
0
3
DASHED
72
65
73
2
40
0.75
49
0.5
49
-0.25
0
LTYPE
2
DOTTED
70
0
3
DOTTED
72
65
73
2
40
0.25
49
0.0
49
-0.25
0
ENDTAB
0
TABLE
2
LAYER
70
2
0
LAYER
2
0
70
0
62
7
6
CONTINUOUS
0
LAYER
2
GEO
70
0
62
3
6
CONTINUOUS
0
ENDTAB
0
ENDSEC
0
SECTION
2
BLOCKS
0
ENDSEC
0
SECTION
2
ENTITIES
0
POLYLINE
8
GEO
66
1
70
0
0
VERTEX
8
GEO
70
0
10
0
20
0
0
VERTEX
8
GEO
70
0
10
100
20
50
0
VERTEX
8
GEO
70
0
10
200
20
0
0
SEQEND
8
GEO
0
POLYLINE
8
GEO
66
1
70
0
0
VERTEX
8
GEO
70
0
10
380
20
100
0
VERTEX
8
GEO
70
0
10
379.61477813377576
20
107.84137122636484
0
VERTEX
8
GEO
70
0
10
378.46282243225846
20
115.60722576129027
0
VERTEX
8
GEO
70
0
10
376.5552268585767
20
123.22277418035699
0
VERTEX
8
GEO
70
0
10
373.91036260090294
20
130.6146745892072
0
VERTEX
8
GEO
70
0
10
370.5537011478684
20
137.7117389460798
0
VERTEX
8
GEO
70
0
10
366.51756898420365
20
144.44561864156816
0
VERTEX
8
GEO
70
0
10
361.84083626901895
20
150.75146273309164
0
VERTEX
8
GEO
70
0
10
356.5685424949238
20
156.5685424949238
0
VERTEX
8
GEO
70
0
10
350.75146273309167
20
161.84083626901895
0
VERTEX
8
GEO
70
0
10
344.44561864156816
20
166.51756898420362
0
VERTEX
8
GEO
70
0
10
337.7117389460798
20
170.55370114786842
0
VERTEX
8
GEO
70
0
10
330.6146745892072
20
173.91036260090294
0
VERTEX
8
GEO
70
0
10
323.22277418035696
20
176.5552268585767
0
VERTEX
8
GEO
70
0
10
315.60722576129024
20
178.46282243225843
0
VERTEX
8
GEO
70
0
10
307.84137122636486
20
179.61477813377576
0
VERTEX
8
GEO
70
0
10
300
20
180
0
VERTEX
8
GEO
70
0
10
292.15862877363514
20
179.61477813377576
0
VERTEX
8
GEO
70
0
10
284.39277423870976
20
178.46282243225846
0
VERTEX
8
GEO
70
0
10
276.77722581964304
20
176.5552268585767
0
VERTEX
8
GEO
70
0
10
269.3853254107928
20
173.91036260090294
0
VERTEX
8
GEO
70
0
10
262.2882610539202
20
170.55370114786842
0
VERTEX
8
GEO
70
0
10
255.5543813584318
20
166.5175689842036
0
VERTEX
8
GEO
70
0
10
249.2485372669084
20
161.84083626901895
0
VERTEX
8
GEO
70
0
10
243.4314575050762
20
156.5685424949238
0
VERTEX
8
GEO
70
0
10
238.15916373098105
20
150.75146273309164
0
VERTEX
8
GEO
70
0
10
233.48243101579638
20
144.44561864156816
0
VERTEX
8
GEO
70
0
10
229.4462988521316
20
137.71173894607983
0
VERTEX
8
GEO
70
0
10
226.08963739909706
20
130.6146745892072
0
VERTEX
8
GEO
70
0
10
223.4447731414233
20
123.22277418035699
0
VERTEX
8
GEO
70
0
10
221.53717756774157
20
115.60722576129025
0
VERTEX
8
GEO
70
0
10
220.38522186622424
20
107.84137122636487
0
VERTEX
8
GEO
70
0
10
220
20
100.00000000000001
0
SEQEND
8
GEO
0
ENDSEC
0
EOF
